<?xml version="1.0" encoding="iso-8859-1"?>
<!-- Generator: Adobe Illustrator 19.0.0, SVG Export Plug-In . SVG Version: 6.00 Build 0)  -->
<svg version="1.1" id="Capa_1" xmlns="http://www.w3.org/2000/svg" xmlns:xlink="http://www.w3.org/1999/xlink" x="0px" y="0px"
	 viewBox="0 0 477.682 477.682" style="enable-background:new 0 0 477.682 477.682;" xml:space="preserve">
<g>
	<g>
		<path d="M310.32,336.856l-48-64c-1.05-1.396-2.528-2.411-4.208-2.888l-112-32c-1.037-0.309-2.128-0.393-3.2-0.248l-64,8
			c-3.251,0.452-5.896,2.843-6.672,6.032l-7.2,28.872L3.76,318.912c-3.346,2.091-4.667,6.31-3.112,9.936l24,56
			c0.686,1.598,1.874,2.929,3.384,3.792l55.072,31.456l47.2,47.24c1.337,1.34,3.106,2.162,4.992,2.32l96,8c0.216,0,0.448,0,0.664,0
			c1.731,0,3.415-0.561,4.8-1.6l64-48c1.79-1.343,2.936-3.374,3.16-5.6l8-80C312.11,340.455,311.538,338.455,310.32,336.856z
			 M288.384,417.4L229.6,461.472l-90.048-7.504L93.624,408.04c-0.501-0.504-1.069-0.938-1.688-1.288l-53.64-30.656l-20.24-47.2
			l58.184-36.368c1.747-1.088,3.008-2.807,3.52-4.8l6.672-26.776l56.944-7.112L251.2,284.648L295.72,344L288.384,417.4z"/>
	</g>
</g>
<g>
	<g>
		<path d="M220,309.696c-24.672,0-44,14.056-44,32c0,17.944,19.328,32,44,32s44-14.056,44-32
			C264,323.752,244.672,309.696,220,309.696z M220,357.696c-16.504,0-28-8.432-28-16s11.504-16,28-16c16.504,0,28,8.432,28,16
			S236.504,357.696,220,357.696z"/>
	</g>
</g>
<g>
	<g>
		<path d="M128,357.696c0,1.992-8.512,8-24,8c-15.488,0-24-6.008-24-8H64c0,13.68,17.192,24,40,24s40-10.32,40-24H128z"/>
	</g>
</g>
<g>
	<g>
		<path d="M200,405.696c-22.808,0-40,10.32-40,24h16c0-1.992,8.512-8,24-8c15.488,0,24,6.008,24,8h16
			C240,416.016,222.808,405.696,200,405.696z"/>
	</g>
</g>
<g>
	<g>
		<path d="M124,277.696c-20.52,0-36,10.32-36,24s15.48,24,36,24s36-10.32,36-24S144.52,277.696,124,277.696z M124,309.696
			c-12.992,0-20-5.68-20-8s7.008-8,20-8s20,5.68,20,8S136.992,309.696,124,309.696z"/>
	</g>
</g>
<g>
	<g>
		<rect x="184" y="285.696" width="16" height="16"/>
	</g>
</g>
<g>
	<g>
		<rect x="202.46" y="169.691" transform="matrix(0.7071 -0.7071 0.7071 0.7071 -44.8075 247.2065)" width="147.081" height="16"/>
	</g>
</g>
<g>
	<g>
		<rect x="266.163" y="157.709" transform="matrix(0.7071 -0.7071 0.7071 0.7071 -9.3932 308.7416)" width="203.649" height="16"/>
	</g>
</g>
<g>
	<g>
		<rect x="51.552" y="125.705" transform="matrix(0.7071 -0.7071 0.7071 0.7071 -42.9969 163.6069)" width="248.881" height="16"/>
	</g>
</g>
<g>
	<g>
		<rect x="276.686" y="13.699" transform="matrix(0.7071 -0.7071 0.7071 0.7071 69.0088 210.0005)" width="22.624" height="16"/>
	</g>
</g>
<g>
	<g>
		<rect x="163.579" y="151.7" transform="matrix(0.7071 -0.7071 0.7071 0.7071 -52.5871 192.4442)" width="84.856" height="16"/>
	</g>
</g>
<g>
	<g>
		<rect x="319.718" y="297.737" transform="matrix(0.7071 -0.7071 0.7071 0.7071 -114.2626 335.6204)" width="56.56" height="16"/>
	</g>
</g>
<g>
	<g>
		<rect x="372.405" y="233.704" transform="matrix(0.7071 -0.7071 0.7071 0.7071 -50.2384 362.1226)" width="79.192" height="16"/>
	</g>
</g>
<g>
	<g>
		<rect x="452.715" y="181.659" transform="matrix(0.7071 -0.7071 0.7071 0.7071 1.8011 383.6672)" width="22.624" height="16"/>
	</g>
</g>
<g>
	<g>
		<rect x="342.055" y="69.674" transform="matrix(0.7071 -0.7071 0.7071 0.7071 55.2024 288.619)" width="67.88" height="16"/>
	</g>
</g>
<g>
	<g>
		<rect x="452.709" y="61.67" transform="matrix(0.7071 -0.7071 0.7071 0.7071 86.6449 348.5193)" width="22.624" height="16"/>
	</g>
</g>
<g>
	<g>
		<rect x="244.692" y="101.696" transform="matrix(0.7071 -0.7071 0.7071 0.7071 -2.5852 213.1512)" width="22.624" height="16"/>
	</g>
</g>
<g>
	<g>
		<rect x="276.692" y="69.697" transform="matrix(0.7071 -0.7071 0.7071 0.7071 29.414 226.4063)" width="22.624" height="16"/>
	</g>
</g>
<g>
	<g>
		<rect x="409.361" y="13.684" transform="matrix(0.7071 -0.7071 0.7071 0.7071 111.1941 311.8137)" width="45.256" height="16"/>
	</g>
</g>
<g>
</g>
<g>
</g>
<g>
</g>
<g>
</g>
<g>
</g>
<g>
</g>
<g>
</g>
<g>
</g>
<g>
</g>
<g>
</g>
<g>
</g>
<g>
</g>
<g>
</g>
<g>
</g>
<g>
</g>
</svg>
