<svg id="line_icons"  viewBox="0 0 74 74" xmlns="http://www.w3.org/2000/svg" data-name="line icons"><path d="m17.013 72a5.1 5.1 0 0 1 -3.2-1.229 12.35 12.35 0 0 1 -2.2-2.623c-.146-.211-.292-.422-.441-.629a21.909 21.909 0 0 0 -5.06-5.068l-.394-.28a7.543 7.543 0 0 1 -3.146-3.414c-.713-2.01.185-4.053 1.047-5.608l.2-.367a7.378 7.378 0 0 0 1.339-3.782 7.666 7.666 0 0 0 -.7-2.339 6.517 6.517 0 0 1 -.691-4.182c.536-2.04 2.537-3.366 5.787-3.835a37.11 37.11 0 0 1 7.588-.307c1.839.115 4.45.495 5.874 2.47a8.092 8.092 0 0 1 .681 1.2 4.21 4.21 0 0 0 .716 1.154 4.256 4.256 0 0 0 1.768.8c.346.1.693.2 1.026.33a7.282 7.282 0 0 1 4.236 4.3 7.751 7.751 0 0 1 .067 4.12c-.323 1.851-.413 2.78 1.04 3.67a13.2 13.2 0 0 0 1.462.732 12.355 12.355 0 0 1 2.032 1.087c1.352.938 2.457 2.67 1.881 4.424a5.064 5.064 0 0 1 -2.4 2.52l-7.12 4.4a3.8 3.8 0 0 1 -1.674.663 3.674 3.674 0 0 1 -2.731-1.243 3.053 3.053 0 0 0 -1.214-.8c-.661-.111-1.407.695-1.7 1.048-.118.145-.234.3-.351.447a6.041 6.041 0 0 1 -2.216 2.021 3.665 3.665 0 0 1 -1.506.32zm-2.17-31.726a35.18 35.18 0 0 0 -5 .358c-1.365.2-3.718.767-4.137 2.364a4.833 4.833 0 0 0 .607 2.914 9.276 9.276 0 0 1 .845 2.983 9.056 9.056 0 0 1 -1.591 4.865l-.2.36c-.658 1.189-1.357 2.714-.911 3.971a5.926 5.926 0 0 0 2.414 2.448l.407.289a23.906 23.906 0 0 1 5.521 5.529c.155.216.307.437.459.657a10.718 10.718 0 0 0 1.835 2.22 2.7 2.7 0 0 0 2.615.631 4.431 4.431 0 0 0 1.452-1.419c.127-.164.254-.328.383-.486a3.906 3.906 0 0 1 3.581-1.758 4.533 4.533 0 0 1 2.2 1.263c.557.487.917.794 1.245.752a2.247 2.247 0 0 0 .79-.371l7.119-4.4c.716-.442 1.373-.885 1.557-1.445.242-.735-.381-1.641-1.122-2.156a10.727 10.727 0 0 0 -1.713-.9 15 15 0 0 1 -1.683-.849c-2.677-1.64-2.283-3.9-1.966-5.719a6.045 6.045 0 0 0 .021-3.1 5.263 5.263 0 0 0 -3.06-3.108c-.286-.107-.584-.194-.882-.281a5.871 5.871 0 0 1 -2.6-1.282 5.851 5.851 0 0 1 -1.129-1.704 6.538 6.538 0 0 0 -.508-.915c-.707-.98-2.1-1.5-4.377-1.644q-1.081-.071-2.172-.072z"/><path d="m25.459 65.286a3.883 3.883 0 0 1 -2.511-1.249 3.061 3.061 0 0 0 -1.214-.8 1.325 1.325 0 0 0 -1 .358 1 1 0 0 1 -1.216-1.588 3.273 3.273 0 0 1 2.551-.741 4.538 4.538 0 0 1 2.2 1.263c.557.487.919.793 1.245.753a2.259 2.259 0 0 0 .79-.372l1.079-.667a1 1 0 1 1 1.051 1.7l-1.078.667a3.806 3.806 0 0 1 -1.675.663c-.081.01-.15.013-.222.013z"/><path d="m26.528 52.75a1 1 0 0 1 -.942-.662 5.258 5.258 0 0 0 -3.059-3.109c-.286-.108-.584-.194-.882-.281a5.871 5.871 0 0 1 -2.6-1.282 1 1 0 1 1 1.395-1.433 4.268 4.268 0 0 0 1.768.8c.347.1.694.2 1.027.33a7.279 7.279 0 0 1 4.236 4.3 1 1 0 0 1 -.941 1.338z"/><path d="m9.464 58.568a1 1 0 0 1 -.9-.565c-.928-1.92-.26-4.049.427-5.689l.163-.388a7.365 7.365 0 0 0 .919-3.9 1 1 0 1 1 1.971-.334 9.047 9.047 0 0 1 -1.044 5.014l-.161.379c-.523 1.254-1.051 2.847-.47 4.048a1 1 0 0 1 -.9 1.435z"/><path d="m19.63 36.318a3.844 3.844 0 1 1 3.844-3.844 3.848 3.848 0 0 1 -3.844 3.844zm0-5.688a1.844 1.844 0 1 0 1.844 1.844 1.846 1.846 0 0 0 -1.844-1.844z"/><path d="m39.138 52.512a4.621 4.621 0 1 1 4.619-4.62 4.625 4.625 0 0 1 -4.619 4.62zm0-7.241a2.621 2.621 0 1 0 2.619 2.621 2.623 2.623 0 0 0 -2.619-2.621z"/><path d="m52.271 5.4a1 1 0 0 1 -.7-1.717l1.446-1.4a1 1 0 0 1 1.393 1.436l-1.446 1.4a1 1 0 0 1 -.693.281z"/><path d="m30.008 26.992a1 1 0 0 1 -.7-1.718l19.882-19.274a1 1 0 0 1 1.393 1.436l-19.883 19.274a1 1 0 0 1 -.692.282z"/><path d="m41.863 25.688a1 1 0 0 1 -.7-1.718l19.959-19.351a1 1 0 1 1 1.392 1.435l-19.955 19.352a1 1 0 0 1 -.696.282z"/><path d="m38.108 29.328a1 1 0 0 1 -.7-1.718l.793-.769a1 1 0 0 1 1.399 1.437l-.793.768a1 1 0 0 1 -.699.282z"/><path d="m50.109 29.1a1 1 0 0 1 -.7-1.718l17.397-16.869a1 1 0 1 1 1.394 1.435l-17.394 16.866a1 1 0 0 1 -.697.286z"/><path d="m43.792 35.222a1 1 0 0 1 -.692-1.722l4.016-3.878a1 1 0 0 1 1.39 1.438l-4.017 3.878a1 1 0 0 1 -.697.284z"/><path d="m66.836 24.561a1 1 0 0 1 -.7-1.718l3.853-3.737a1 1 0 1 1 1.392 1.436l-3.853 3.737a1 1 0 0 1 -.692.282z"/><path d="m46.98 43.816a1 1 0 0 1 -.7-1.717l17.456-16.925a1 1 0 1 1 1.392 1.436l-17.452 16.924a.993.993 0 0 1 -.696.282z"/></svg>