<svg viewBox="1 0 511.99875 511" xmlns="http://www.w3.org/2000/svg"><path d="m268.03125 335.492188c-14.792969-14.792969-14.792969-38.863282 0-53.65625 10.945312-10.941407 16.972656-25.492188 16.972656-40.972657v-16.949219l84.679688-84.675781c3.902344-3.90625 3.902344-10.238281 0-14.144531-3.90625-3.902344-10.238282-3.902344-14.144532 0l-72.484374 72.484375c-2.585938-9.761719-7.703126-18.71875-15.050782-26.0625-2.621094-2.621094-5.4375-4.925781-8.394531-6.9375-.058594-.039063-.117187-.082031-.175781-.121094-8.539063-5.765625-18.28125-9-28.179688-9.714843l81.171875-80.929688c3.914063-3.898438 3.921875-10.230469.023438-14.144531-3.902344-3.910157-10.230469-3.917969-14.144531-.019531l-107.300782 106.980468c-.476562.472656-.890625.980469-1.25 1.515625-1.265625 1.066407-2.503906 2.179688-3.695312 3.371094l-77.679688 77.679687c-10.941406 10.945313-16.96875 25.496094-16.96875 40.972657v11.269531c0 11.066406-4.816406 21.554688-13.210937 28.769531l-58.027344 49.882813c-12.820313 11.019531-20.171875 27.035156-20.171875 43.9375v30.230468c0 31.949219 25.992188 57.941407 57.941406 57.941407h41.046875c15.476563 0 30.023438-6.027344 40.96875-16.972657l20.21875-20.21875c7.167969-7.164062 16.695313-11.109374 26.828125-11.109374h13.054688c15.476562 0 30.023437-6.027344 40.96875-16.972657l28.25-28.25c22.589844-22.589843 22.589844-59.347656 0-81.941406zm-194.289062 34.585937c16.722656 0 30.324218 13.601563 30.324218 30.324219 0 16.71875-13.601562 30.320312-30.324218 30.320312-16.71875 0-30.320313-13.601562-30.320313-30.320312 0-16.722656 13.601563-30.324219 30.320313-30.324219zm181.394531 34.457031-28.25 28.25c-7.167969 7.167969-16.695313 11.113282-26.828125 11.113282h-13.054688c-15.476562 0-30.027344 6.027343-40.972656 16.96875l-20.214844 20.21875c-7.167968 7.167968-16.695312 11.113281-26.828125 11.113281h-41.046875c-20.921875 0-37.941406-17.019531-37.941406-37.941407v-30.226562c0-5.882812 1.371094-11.59375 3.90625-16.746094 3.367188 24.5 24.425781 43.4375 49.835938 43.4375 27.75 0 50.324218-22.574218 50.324218-50.320312 0-24.082032-17.007812-44.257813-39.640625-49.171875l6.816407-5.855469c12.816406-11.019531 20.171874-27.035156 20.171874-43.941406v-11.265625c0-10.136719 3.945313-19.664063 11.109376-26.828125l77.683593-77.683594c7.394531-7.394531 17.101563-11.089844 26.816407-11.089844 3.296874 0 6.589843.433594 9.792968 1.285156l-49.730468 49.730469c-10.039063 10.039063-15.566407 23.386719-15.566407 37.585938 0 8.855469-3.449219 17.183593-9.710937 23.445312l-7.902344 7.898438c-3.902344 3.90625-3.902344 10.238281 0 14.144531 1.953125 1.953125 4.511719 2.929688 7.070312 2.929688 2.558594 0 5.121094-.976563 7.074219-2.929688l7.898438-7.902344c10.039062-10.039062 15.570312-23.386718 15.570312-37.585937 0-8.855469 3.445313-17.179688 9.710938-23.441407l53.332031-53.335937c6.734375 7.082031 10.441406 16.3125 10.441406 26.121094v3.117187l-24.734375 24.734375c-3.902343 3.90625-3.902343 10.238281 0 14.144531 1.953125 1.949219 4.511719 2.929688 7.074219 2.929688 2.558594 0 5.117188-.980469 7.070312-2.929688l10.445313-10.449218c-.738281 8.929687-4.5625 17.226562-10.96875 23.636718-22.589844 22.589844-22.589844 59.347657 0 81.941407l1.242187 1.242187c14.796876 14.792969 14.796876 38.863282.003907 53.65625zm0 0"/><path d="m201.257812 350.078125c-17.628906 0-31.972656 14.34375-31.972656 31.972656 0 17.628907 14.34375 31.972657 31.972656 31.972657 17.628907 0 31.972657-14.34375 31.972657-31.972657 0-17.628906-14.34375-31.972656-31.972657-31.972656zm0 43.941406c-6.601562 0-11.972656-5.367187-11.972656-11.972656 0-6.597656 5.371094-11.96875 11.972656-11.96875 6.601563 0 11.972657 5.371094 11.972657 11.96875 0 6.605469-5.371094 11.972656-11.972657 11.972656zm0 0"/><path d="m142.328125 321.269531c-1.609375-3.871093-5.570313-6.390625-9.769531-6.160156-4.152344.222656-7.820313 3.101563-9.027344 7.078125-1.214844 3.988281.25 8.46875 3.613281 10.9375 3.289063 2.414062 7.757813 2.597656 11.230469.457031 4.105469-2.527343 5.808594-7.867187 3.953125-12.3125zm0 0"/><path d="m474.953125 109.027344c-3.90625-3.902344-10.238281-3.902344-14.144531 0l-113.46875 113.472656c-3.90625 3.90625-3.90625 10.238281 0 14.144531 1.953125 1.949219 4.511718 2.925781 7.070312 2.925781s5.117188-.976562 7.070313-2.925781l113.472656-113.472656c3.902344-3.90625 3.902344-10.238281 0-14.144531zm0 0"/><path d="m336.980469 45.285156c2.558593 0 5.117187-.976562 7.070312-2.929687l24.789063-24.785157c3.902344-3.90625 3.902344-10.238281 0-14.144531-3.90625-3.902343-10.238282-3.902343-14.144532 0l-24.789062 24.785157c-3.902344 3.90625-3.902344 10.238281 0 14.144531 1.957031 1.953125 4.515625 2.929687 7.074219 2.929687zm0 0"/><path d="m413.714844 260.109375c-3.90625-3.90625-10.238282-3.90625-14.144532 0l-101.273437 101.269531c-3.90625 3.90625-3.90625 10.238282 0 14.144532 1.953125 1.953124 4.511719 2.929687 7.070313 2.929687 2.558593 0 5.117187-.976563 7.070312-2.929687l101.273438-101.273438c3.90625-3.90625 3.90625-10.238281.003906-14.140625zm0 0"/><path d="m333.816406 266.386719-28.128906 28.128906c-3.90625 3.902344-3.90625 10.234375 0 14.140625 1.953125 1.953125 4.511719 2.929688 7.070312 2.929688 2.558594 0 5.117188-.976563 7.070313-2.929688l28.128906-28.125c3.90625-3.90625 3.90625-10.238281 0-14.144531s-10.234375-3.90625-14.140625 0zm0 0"/><path d="m382.460938 110.6875c2.308593 3.46875 6.703124 5.167969 10.742187 4.140625 4.058594-1.03125 7.085937-4.546875 7.515625-8.714844.425781-4.125-1.890625-8.203125-5.617188-9.984375-3.679687-1.757812-8.179687-1.09375-11.167968 1.703125-3.546875 3.320313-4.121094 8.820313-1.472656 12.855469zm0 0"/><path d="m412.410156 86.175781c1.953125 1.953125 4.511719 2.929688 7.070313 2.929688 2.558593 0 5.121093-.976563 7.074219-2.929688l67.878906-67.878906c3.90625-3.90625 3.90625-10.238281 0-14.144531-3.90625-3.902344-10.238282-3.902344-14.144532 0l-67.878906 67.878906c-3.902344 3.90625-3.902344 10.238281 0 14.144531zm0 0"/><path d="m453.375 206.300781-23.835938 23.839844c-3.90625 3.902344-3.90625 10.234375 0 14.140625 1.953126 1.953125 4.511719 2.929688 7.070313 2.929688s5.117187-.976563 7.070313-2.929688l23.839843-23.835938c3.902344-3.90625 3.902344-10.238281 0-14.144531-3.90625-3.902343-10.238281-3.902343-14.144531 0zm0 0"/><path d="m494.128906 143.964844-17.855468 17.855468c-3.90625 3.90625-3.90625 10.238282 0 14.144532 1.953124 1.949218 4.511718 2.929687 7.070312 2.929687s5.117188-.980469 7.070312-2.929687l17.855469-17.855469c3.90625-3.90625 3.90625-10.238281 0-14.144531-3.902343-3.902344-10.234375-3.90625-14.140625 0zm0 0"/><path d="m305.6875 117.703125-21.152344 21.152344c-3.902344 3.90625-3.902344 10.238281 0 14.144531 1.953125 1.949219 4.511719 2.925781 7.070313 2.925781 2.558593 0 5.121093-.976562 7.074219-2.925781l21.148437-21.152344c3.90625-3.90625 3.90625-10.238281 0-14.144531-3.902344-3.902344-10.230469-3.902344-14.140625 0zm0 0"/><path d="m336.894531 102.328125c1.953125 1.953125 4.511719 2.929687 7.070313 2.929687s5.117187-.976562 7.070312-2.929687l82.394532-82.394531c3.90625-3.902344 3.90625-10.234375 0-14.140625-3.90625-3.90625-10.238282-3.90625-14.144532 0l-82.390625 82.390625c-3.90625 3.90625-3.90625 10.238281 0 14.144531zm0 0"/><path d="m473.484375 72.03125c-3.90625 3.90625-3.90625 10.238281 0 14.144531 1.953125 1.953125 4.511719 2.929688 7.070313 2.929688 2.558593 0 5.117187-.976563 7.070312-2.929688l21.445312-21.445312c3.90625-3.902344 3.90625-10.234375 0-14.140625s-10.234374-3.90625-14.144531 0zm0 0"/><path d="m464.53125 295.285156-31.011719 31.015625c-3.90625 3.90625-3.90625 10.238281 0 14.144531 1.953125 1.949219 4.511719 2.925782 7.070313 2.925782s5.117187-.976563 7.070312-2.925782l31.015625-31.015624c3.902344-3.90625 3.902344-10.238282 0-14.144532-3.90625-3.902344-10.238281-3.902344-14.144531 0zm0 0"/><path d="m408.667969 352.492188h-12.546875c-6.085938 0-12.035156 2.476562-16.320313 6.800781l-23.78125 23.976562c-8.179687 8.25-8.152343 21.640625.0625 29.851563 4.339844 4.34375 10.113281 6.734375 16.253907 6.734375h14.949218c6.140625 0 11.910156-2.390625 16.253906-6.734375l21.386719-21.382813c8.960938-8.964843 8.960938-23.550781 0-32.511719-4.34375-4.34375-10.117187-6.734374-16.257812-6.734374zm2.113281 25.101562-21.382812 21.386719c-.566407.5625-1.316407.875-2.117188.875h-14.945312c-.800782 0-1.550782-.3125-2.113282-.875-.445312-.449219-.449218-1.175781-.003906-1.625l23.78125-23.980469c.558594-.558594 1.332031-.882812 2.121094-.882812h12.546875c.796875 0 1.550781.3125 2.113281.875 1.164062 1.164062 1.164062 3.0625 0 4.226562zm0 0"/><path d="m111.972656 202.414062c2.382813.988282 4.875 1.46875 7.34375 1.46875 4.972656 0 9.84375-1.945312 13.515625-5.617187l32.089844-32.089844c3.613281-3.613281 5.605469-8.421875 5.605469-13.53125v-17.449219c0-7.785156-4.652344-14.734374-11.855469-17.699218s-15.398437-1.304688-20.878906 4.230468l-32.089844 32.382813c-3.574219 3.605469-5.546875 8.390625-5.546875 13.472656v17.152344c0 7.765625 4.640625 14.707031 11.816406 17.679687zm8.183594-34.480468 30.371094-30.648438v15l-30.371094 30.371094zm0 0"/></svg>